<svg fill="#0fa5a1" viewBox="-10.24 -10.24 52.48 52.48" version="1.1" xmlns="http://www.w3.org/2000/svg" transform="rotate(270)" stroke="#0fa5a1"><g id="SVGRepo_bgCarrier" stroke-width="0" transform="translate(0,0), scale(1)"><rect x="-10.24" y="-10.24" width="52.48" height="52.48" rx="26.24" fill="#f3f5f8" strokewidth="0"></rect></g><g id="SVGRepo_tracerCarrier" stroke-linecap="round" stroke-linejoin="round"></g><g id="SVGRepo_iconCarrier"> <title>arrow-right-arrow-left</title> <path d="M2 11.25h24.981l-2.866 2.866c-0.226 0.226-0.366 0.539-0.366 0.884 0 0.691 0.56 1.251 1.251 1.251 0.346 0 0.658-0.14 0.885-0.367v0l5-5c0.012-0.012 0.016-0.029 0.027-0.041 0.099-0.103 0.18-0.223 0.239-0.356l0.003-0.008 0-0.003c0.051-0.13 0.080-0.28 0.080-0.438 0-0.071-0.006-0.141-0.017-0.208l0.001 0.007c-0.007-0.058-0.018-0.109-0.031-0.159l0.002 0.008c-0.051-0.223-0.158-0.416-0.305-0.571l0 0.001-5-5c-0.226-0.227-0.539-0.367-0.885-0.367-0.691 0-1.251 0.56-1.251 1.251 0 0.345 0.14 0.658 0.366 0.884v0l2.867 2.866h-24.982c-0.69 0-1.25 0.56-1.25 1.25s0.56 1.25 1.25 1.25v0zM30 20.75h-24.982l2.866-2.866c0.225-0.226 0.363-0.537 0.363-0.881 0-0.69-0.56-1.25-1.25-1.25-0.344 0-0.655 0.139-0.881 0.363l-5 4.999c-0.012 0.012-0.016 0.029-0.027 0.041-0.1 0.103-0.182 0.224-0.241 0.357l-0.003 0.008-0 0.003c-0.050 0.129-0.079 0.279-0.079 0.436 0 0.072 0.006 0.142 0.018 0.21l-0.001-0.007c0.007 0.058 0.018 0.108 0.031 0.158l-0.002-0.008c0.051 0.224 0.158 0.417 0.306 0.572l-0-0 5 5c0.226 0.226 0.539 0.366 0.884 0.366 0.691 0 1.251-0.56 1.251-1.251 0-0.346-0.14-0.658-0.367-0.885l-2.866-2.865h24.982c0.69 0 1.25-0.56 1.25-1.25s-0.56-1.25-1.25-1.25v0z"></path> </g></svg>